<mxfile host="Electron" modified="2024-07-16T13:29:34.630Z" agent="Mozilla/5.0 (Macintosh; Intel Mac OS X 10_15_7) AppleWebKit/537.36 (KHTML, like Gecko) draw.io/24.6.4 Chrome/124.0.6367.207 Electron/30.0.6 Safari/537.36" etag="p506ctKHYzV3CnJELJyz" version="24.6.4" type="device">
  <diagram name="Page-1" id="SAB9jOYidWvrPo039K83">
    <mxGraphModel dx="2261" dy="854" grid="1" gridSize="10" guides="1" tooltips="1" connect="1" arrows="1" fold="1" page="1" pageScale="1" pageWidth="827" pageHeight="1169" math="0" shadow="0">
      <root>
        <mxCell id="0" />
        <mxCell id="1" parent="0" />
        <mxCell id="HE8XgLgueNXkd9YTy3hw-3" value="Système" style="shape=umlLifeline;perimeter=lifelinePerimeter;whiteSpace=wrap;html=1;container=1;dropTarget=0;collapsible=0;recursiveResize=0;outlineConnect=0;portConstraint=eastwest;newEdgeStyle={&quot;edgeStyle&quot;:&quot;elbowEdgeStyle&quot;,&quot;elbow&quot;:&quot;vertical&quot;,&quot;curved&quot;:0,&quot;rounded&quot;:0};" parent="1" vertex="1">
          <mxGeometry x="400" y="40" width="100" height="1290" as="geometry" />
        </mxCell>
        <mxCell id="HE8XgLgueNXkd9YTy3hw-4" value="" style="shape=umlDestroy;dashed=0;targetShapes=umlLifeline;" parent="HE8XgLgueNXkd9YTy3hw-3" vertex="1">
          <mxGeometry x="30" y="1270" width="40" height="40" as="geometry" />
        </mxCell>
        <mxCell id="HE8XgLgueNXkd9YTy3hw-5" value="Mailer" style="shape=umlLifeline;perimeter=lifelinePerimeter;whiteSpace=wrap;html=1;container=1;dropTarget=0;collapsible=0;recursiveResize=0;outlineConnect=0;portConstraint=eastwest;newEdgeStyle={&quot;edgeStyle&quot;:&quot;elbowEdgeStyle&quot;,&quot;elbow&quot;:&quot;vertical&quot;,&quot;curved&quot;:0,&quot;rounded&quot;:0};" parent="1" vertex="1">
          <mxGeometry x="650" y="40" width="100" height="1290" as="geometry" />
        </mxCell>
        <mxCell id="HE8XgLgueNXkd9YTy3hw-6" value="" style="shape=umlDestroy;dashed=0;targetShapes=umlLifeline;" parent="HE8XgLgueNXkd9YTy3hw-5" vertex="1">
          <mxGeometry x="30" y="1270" width="40" height="40" as="geometry" />
        </mxCell>
        <mxCell id="HE8XgLgueNXkd9YTy3hw-24" value="" style="html=1;points=[[0,0,0,0,5],[0,1,0,0,-5],[1,0,0,0,5],[1,1,0,0,-5]];perimeter=orthogonalPerimeter;outlineConnect=0;targetShapes=umlLifeline;portConstraint=eastwest;newEdgeStyle={&quot;curved&quot;:0,&quot;rounded&quot;:0};" parent="HE8XgLgueNXkd9YTy3hw-5" vertex="1">
          <mxGeometry x="45" y="280" width="10" height="230" as="geometry" />
        </mxCell>
        <mxCell id="HE8XgLgueNXkd9YTy3hw-49" value="" style="html=1;points=[[0,0,0,0,5],[0,1,0,0,-5],[1,0,0,0,5],[1,1,0,0,-5]];perimeter=orthogonalPerimeter;outlineConnect=0;targetShapes=umlLifeline;portConstraint=eastwest;newEdgeStyle={&quot;curved&quot;:0,&quot;rounded&quot;:0};" parent="HE8XgLgueNXkd9YTy3hw-5" vertex="1">
          <mxGeometry x="45" y="1000" width="10" height="230" as="geometry" />
        </mxCell>
        <mxCell id="HE8XgLgueNXkd9YTy3hw-2" value="" style="shape=umlDestroy;dashed=0;targetShapes=umlLifeline;" parent="1" vertex="1">
          <mxGeometry x="180" y="1310" width="40" height="40" as="geometry" />
        </mxCell>
        <mxCell id="HE8XgLgueNXkd9YTy3hw-7" value="Organisateur" style="shape=umlActor;verticalLabelPosition=bottom;verticalAlign=top;html=1;" parent="1" vertex="1">
          <mxGeometry x="185" y="20" width="30" height="60" as="geometry" />
        </mxCell>
        <mxCell id="HE8XgLgueNXkd9YTy3hw-8" value="" style="endArrow=none;dashed=1;html=1;rounded=0;" parent="1" edge="1">
          <mxGeometry width="50" height="50" relative="1" as="geometry">
            <mxPoint x="200" y="120" as="sourcePoint" />
            <mxPoint x="200" y="80" as="targetPoint" />
          </mxGeometry>
        </mxCell>
        <mxCell id="HE8XgLgueNXkd9YTy3hw-12" value="" style="endArrow=none;dashed=1;html=1;rounded=0;exitX=0.519;exitY=0.456;exitDx=0;exitDy=0;exitPerimeter=0;" parent="1" source="HE8XgLgueNXkd9YTy3hw-2" edge="1">
          <mxGeometry width="50" height="50" relative="1" as="geometry">
            <mxPoint x="200" y="1070" as="sourcePoint" />
            <mxPoint x="200.76" y="170" as="targetPoint" />
          </mxGeometry>
        </mxCell>
        <mxCell id="HE8XgLgueNXkd9YTy3hw-14" style="edgeStyle=orthogonalEdgeStyle;rounded=0;orthogonalLoop=1;jettySize=auto;html=1;curved=0;" parent="1" edge="1">
          <mxGeometry relative="1" as="geometry">
            <mxPoint x="205" y="140" as="sourcePoint" />
            <mxPoint x="445" y="140" as="targetPoint" />
            <Array as="points">
              <mxPoint x="300" y="140" />
              <mxPoint x="300" y="140" />
            </Array>
          </mxGeometry>
        </mxCell>
        <mxCell id="HE8XgLgueNXkd9YTy3hw-15" value="créerConférence(détails)" style="edgeLabel;html=1;align=center;verticalAlign=middle;resizable=0;points=[];" parent="HE8XgLgueNXkd9YTy3hw-14" vertex="1" connectable="0">
          <mxGeometry x="-0.2583" y="2" relative="1" as="geometry">
            <mxPoint x="26" y="-8" as="offset" />
          </mxGeometry>
        </mxCell>
        <mxCell id="HE8XgLgueNXkd9YTy3hw-16" value="" style="html=1;points=[[0,0,0,0,5],[0,1,0,0,-5],[1,0,0,0,5],[1,1,0,0,-5]];perimeter=orthogonalPerimeter;outlineConnect=0;targetShapes=umlLifeline;portConstraint=eastwest;newEdgeStyle={&quot;curved&quot;:0,&quot;rounded&quot;:0};" parent="1" vertex="1">
          <mxGeometry x="445" y="120" width="10" height="160" as="geometry" />
        </mxCell>
        <mxCell id="HE8XgLgueNXkd9YTy3hw-17" style="edgeStyle=orthogonalEdgeStyle;rounded=0;orthogonalLoop=1;jettySize=auto;html=1;curved=0;endArrow=none;endFill=0;startArrow=classicThin;startFill=1;dashed=1;" parent="1" edge="1">
          <mxGeometry relative="1" as="geometry">
            <Array as="points">
              <mxPoint x="300" y="250" />
              <mxPoint x="300" y="250" />
            </Array>
            <mxPoint x="205" y="250" as="sourcePoint" />
            <mxPoint x="445" y="250" as="targetPoint" />
          </mxGeometry>
        </mxCell>
        <mxCell id="HE8XgLgueNXkd9YTy3hw-18" value="listeParticipants(participants)" style="edgeLabel;html=1;align=center;verticalAlign=middle;resizable=0;points=[];" parent="HE8XgLgueNXkd9YTy3hw-17" vertex="1" connectable="0">
          <mxGeometry x="-0.2583" y="2" relative="1" as="geometry">
            <mxPoint x="26" y="-8" as="offset" />
          </mxGeometry>
        </mxCell>
        <mxCell id="HE8XgLgueNXkd9YTy3hw-19" value="" style="html=1;points=[[0,0,0,0,5],[0,1,0,0,-5],[1,0,0,0,5],[1,1,0,0,-5]];perimeter=orthogonalPerimeter;outlineConnect=0;targetShapes=umlLifeline;portConstraint=eastwest;newEdgeStyle={&quot;curved&quot;:0,&quot;rounded&quot;:0};" parent="1" vertex="1">
          <mxGeometry x="195" y="120" width="10" height="160" as="geometry" />
        </mxCell>
        <mxCell id="HE8XgLgueNXkd9YTy3hw-25" style="edgeStyle=orthogonalEdgeStyle;rounded=0;orthogonalLoop=1;jettySize=auto;html=1;curved=0;" parent="1" edge="1">
          <mxGeometry relative="1" as="geometry">
            <mxPoint x="455" y="380" as="sourcePoint" />
            <mxPoint x="695" y="380" as="targetPoint" />
          </mxGeometry>
        </mxCell>
        <mxCell id="HE8XgLgueNXkd9YTy3hw-26" value="envoyerInvitations(participants)" style="edgeLabel;html=1;align=center;verticalAlign=middle;resizable=0;points=[];" parent="HE8XgLgueNXkd9YTy3hw-25" vertex="1" connectable="0">
          <mxGeometry x="0.2139" y="1" relative="1" as="geometry">
            <mxPoint x="-21" y="-9" as="offset" />
          </mxGeometry>
        </mxCell>
        <mxCell id="HE8XgLgueNXkd9YTy3hw-20" value="" style="html=1;points=[[0,0,0,0,5],[0,1,0,0,-5],[1,0,0,0,5],[1,1,0,0,-5]];perimeter=orthogonalPerimeter;outlineConnect=0;targetShapes=umlLifeline;portConstraint=eastwest;newEdgeStyle={&quot;curved&quot;:0,&quot;rounded&quot;:0};" parent="1" vertex="1">
          <mxGeometry x="445" y="320" width="10" height="660" as="geometry" />
        </mxCell>
        <mxCell id="HE8XgLgueNXkd9YTy3hw-22" style="edgeStyle=orthogonalEdgeStyle;rounded=0;orthogonalLoop=1;jettySize=auto;html=1;curved=0;" parent="1" edge="1">
          <mxGeometry relative="1" as="geometry">
            <mxPoint x="205" y="350" as="sourcePoint" />
            <mxPoint x="445" y="350" as="targetPoint" />
          </mxGeometry>
        </mxCell>
        <mxCell id="HE8XgLgueNXkd9YTy3hw-23" value="sélectionnerParticipants(participants)" style="edgeLabel;html=1;align=center;verticalAlign=middle;resizable=0;points=[];" parent="HE8XgLgueNXkd9YTy3hw-22" vertex="1" connectable="0">
          <mxGeometry x="0.1417" y="-1" relative="1" as="geometry">
            <mxPoint x="-12" y="-16" as="offset" />
          </mxGeometry>
        </mxCell>
        <mxCell id="HE8XgLgueNXkd9YTy3hw-21" value="" style="html=1;points=[[0,0,0,0,5],[0,1,0,0,-5],[1,0,0,0,5],[1,1,0,0,-5]];perimeter=orthogonalPerimeter;outlineConnect=0;targetShapes=umlLifeline;portConstraint=eastwest;newEdgeStyle={&quot;curved&quot;:0,&quot;rounded&quot;:0};" parent="1" vertex="1">
          <mxGeometry x="195" y="320" width="10" height="660" as="geometry" />
        </mxCell>
        <mxCell id="HE8XgLgueNXkd9YTy3hw-27" style="edgeStyle=orthogonalEdgeStyle;rounded=0;orthogonalLoop=1;jettySize=auto;html=1;curved=0;dashed=1;" parent="1" edge="1">
          <mxGeometry relative="1" as="geometry">
            <mxPoint x="695" y="487" as="sourcePoint" />
            <mxPoint x="455" y="487" as="targetPoint" />
          </mxGeometry>
        </mxCell>
        <mxCell id="HE8XgLgueNXkd9YTy3hw-28" value="réponsesParticipant(réponse)" style="edgeLabel;html=1;align=center;verticalAlign=middle;resizable=0;points=[];" parent="HE8XgLgueNXkd9YTy3hw-27" vertex="1" connectable="0">
          <mxGeometry x="-0.1107" y="-3" relative="1" as="geometry">
            <mxPoint x="-8" y="-7" as="offset" />
          </mxGeometry>
        </mxCell>
        <mxCell id="HE8XgLgueNXkd9YTy3hw-29" value="&lt;b&gt;LOOP&lt;/b&gt;" style="shape=umlFrame;whiteSpace=wrap;html=1;pointerEvents=0;recursiveResize=0;container=1;collapsible=0;width=50;" parent="1" vertex="1">
          <mxGeometry x="40" y="520" width="880" height="400" as="geometry" />
        </mxCell>
        <mxCell id="HE8XgLgueNXkd9YTy3hw-30" value="&lt;b&gt;WHILE réponse&lt;/b&gt;" style="text;align=center;html=1;" parent="HE8XgLgueNXkd9YTy3hw-29" vertex="1">
          <mxGeometry width="100" height="20" relative="1" as="geometry">
            <mxPoint x="10" y="40" as="offset" />
          </mxGeometry>
        </mxCell>
        <mxCell id="HE8XgLgueNXkd9YTy3hw-31" value="&lt;b&gt;ALT&lt;/b&gt;" style="shape=umlFrame;whiteSpace=wrap;html=1;pointerEvents=0;recursiveResize=0;container=1;collapsible=0;width=75;height=30;" parent="HE8XgLgueNXkd9YTy3hw-29" vertex="1">
          <mxGeometry x="15" y="100" width="845" height="230" as="geometry" />
        </mxCell>
        <mxCell id="HE8XgLgueNXkd9YTy3hw-32" value="&lt;b&gt;Réponse positive&lt;/b&gt;" style="text;html=1;" parent="HE8XgLgueNXkd9YTy3hw-31" vertex="1">
          <mxGeometry width="100" height="20" relative="1" as="geometry">
            <mxPoint x="20" y="40" as="offset" />
          </mxGeometry>
        </mxCell>
        <mxCell id="HE8XgLgueNXkd9YTy3hw-33" value="&lt;b&gt;Réponse négative&lt;/b&gt;" style="line;strokeWidth=2;dashed=1;labelPosition=center;verticalLabelPosition=bottom;align=left;verticalAlign=top;spacingLeft=20;spacingTop=15;html=1;whiteSpace=wrap;" parent="HE8XgLgueNXkd9YTy3hw-31" vertex="1">
          <mxGeometry x="2.5" y="110" width="840" height="10" as="geometry" />
        </mxCell>
        <mxCell id="HE8XgLgueNXkd9YTy3hw-40" style="edgeStyle=orthogonalEdgeStyle;rounded=0;orthogonalLoop=1;jettySize=auto;html=1;curved=0;entryX=1.376;entryY=0.595;entryDx=0;entryDy=0;entryPerimeter=0;dashed=1;" parent="HE8XgLgueNXkd9YTy3hw-31" edge="1">
          <mxGeometry relative="1" as="geometry">
            <mxPoint x="401" y="160" as="sourcePoint" />
            <mxPoint x="405" y="200" as="targetPoint" />
            <Array as="points">
              <mxPoint x="466" y="160" />
            </Array>
          </mxGeometry>
        </mxCell>
        <mxCell id="HE8XgLgueNXkd9YTy3hw-41" value="Suppression de la liste des participants" style="edgeLabel;html=1;align=center;verticalAlign=middle;resizable=0;points=[];" parent="HE8XgLgueNXkd9YTy3hw-40" vertex="1" connectable="0">
          <mxGeometry x="0.1591" y="-1" relative="1" as="geometry">
            <mxPoint x="41" y="-11" as="offset" />
          </mxGeometry>
        </mxCell>
        <mxCell id="HE8XgLgueNXkd9YTy3hw-54" style="edgeStyle=orthogonalEdgeStyle;rounded=0;orthogonalLoop=1;jettySize=auto;html=1;curved=0;entryX=1.376;entryY=0.595;entryDx=0;entryDy=0;entryPerimeter=0;dashed=1;" parent="HE8XgLgueNXkd9YTy3hw-29" edge="1">
          <mxGeometry relative="1" as="geometry">
            <mxPoint x="665" y="-99.95238095238096" as="sourcePoint" />
            <mxPoint x="668.7600000000002" y="-60.09999999999991" as="targetPoint" />
            <Array as="points">
              <mxPoint x="730" y="-100" />
            </Array>
          </mxGeometry>
        </mxCell>
        <mxCell id="HE8XgLgueNXkd9YTy3hw-55" value="recevoirRéponses(réponse)" style="edgeLabel;html=1;align=center;verticalAlign=middle;resizable=0;points=[];" parent="HE8XgLgueNXkd9YTy3hw-54" vertex="1" connectable="0">
          <mxGeometry x="0.1591" y="-1" relative="1" as="geometry">
            <mxPoint x="41" y="-11" as="offset" />
          </mxGeometry>
        </mxCell>
        <mxCell id="HE8XgLgueNXkd9YTy3hw-38" style="edgeStyle=orthogonalEdgeStyle;rounded=0;orthogonalLoop=1;jettySize=auto;html=1;curved=0;entryX=1.376;entryY=0.595;entryDx=0;entryDy=0;entryPerimeter=0;dashed=1;" parent="1" edge="1">
          <mxGeometry relative="1" as="geometry">
            <mxPoint x="455" y="650.047619047619" as="sourcePoint" />
            <mxPoint x="458.7600000000002" y="689.9000000000001" as="targetPoint" />
            <Array as="points">
              <mxPoint x="520" y="650" />
            </Array>
          </mxGeometry>
        </mxCell>
        <mxCell id="HE8XgLgueNXkd9YTy3hw-39" value="Ajout à la liste des participants" style="edgeLabel;html=1;align=center;verticalAlign=middle;resizable=0;points=[];" parent="HE8XgLgueNXkd9YTy3hw-38" vertex="1" connectable="0">
          <mxGeometry x="0.1591" y="-1" relative="1" as="geometry">
            <mxPoint x="41" y="-11" as="offset" />
          </mxGeometry>
        </mxCell>
        <mxCell id="HE8XgLgueNXkd9YTy3hw-50" style="edgeStyle=orthogonalEdgeStyle;rounded=0;orthogonalLoop=1;jettySize=auto;html=1;curved=0;" parent="1" edge="1">
          <mxGeometry relative="1" as="geometry">
            <mxPoint x="455" y="1120" as="sourcePoint" />
            <mxPoint x="695" y="1120" as="targetPoint" />
          </mxGeometry>
        </mxCell>
        <mxCell id="HE8XgLgueNXkd9YTy3hw-51" value="envoyerConfirmations(participants)" style="edgeLabel;html=1;align=center;verticalAlign=middle;resizable=0;points=[];" parent="HE8XgLgueNXkd9YTy3hw-50" vertex="1" connectable="0">
          <mxGeometry x="-0.1829" y="2" relative="1" as="geometry">
            <mxPoint x="27" y="-8" as="offset" />
          </mxGeometry>
        </mxCell>
        <mxCell id="HE8XgLgueNXkd9YTy3hw-43" value="" style="html=1;points=[[0,0,0,0,5],[0,1,0,0,-5],[1,0,0,0,5],[1,1,0,0,-5]];perimeter=orthogonalPerimeter;outlineConnect=0;targetShapes=umlLifeline;portConstraint=eastwest;newEdgeStyle={&quot;curved&quot;:0,&quot;rounded&quot;:0};" parent="1" vertex="1">
          <mxGeometry x="445" y="1040" width="10" height="230" as="geometry" />
        </mxCell>
        <mxCell id="HE8XgLgueNXkd9YTy3hw-44" style="edgeStyle=orthogonalEdgeStyle;rounded=0;orthogonalLoop=1;jettySize=auto;html=1;curved=0;endArrow=none;endFill=0;startArrow=classicThin;startFill=1;dashed=1;" parent="1" edge="1">
          <mxGeometry relative="1" as="geometry">
            <Array as="points">
              <mxPoint x="300" y="960" />
              <mxPoint x="300" y="960" />
            </Array>
            <mxPoint x="205" y="960" as="sourcePoint" />
            <mxPoint x="445" y="960" as="targetPoint" />
          </mxGeometry>
        </mxCell>
        <mxCell id="HE8XgLgueNXkd9YTy3hw-45" value="listeParticipants(participants)" style="edgeLabel;html=1;align=center;verticalAlign=middle;resizable=0;points=[];" parent="HE8XgLgueNXkd9YTy3hw-44" vertex="1" connectable="0">
          <mxGeometry x="-0.2583" y="2" relative="1" as="geometry">
            <mxPoint x="26" y="-8" as="offset" />
          </mxGeometry>
        </mxCell>
        <mxCell id="HE8XgLgueNXkd9YTy3hw-47" style="edgeStyle=orthogonalEdgeStyle;rounded=0;orthogonalLoop=1;jettySize=auto;html=1;curved=0;" parent="1" edge="1">
          <mxGeometry relative="1" as="geometry">
            <mxPoint x="205" y="1080" as="sourcePoint" />
            <mxPoint x="445" y="1080" as="targetPoint" />
          </mxGeometry>
        </mxCell>
        <mxCell id="HE8XgLgueNXkd9YTy3hw-48" value="validerListe()" style="edgeLabel;html=1;align=center;verticalAlign=middle;resizable=0;points=[];" parent="HE8XgLgueNXkd9YTy3hw-47" vertex="1" connectable="0">
          <mxGeometry x="-0.298" y="3" relative="1" as="geometry">
            <mxPoint x="31" y="-7" as="offset" />
          </mxGeometry>
        </mxCell>
        <mxCell id="HE8XgLgueNXkd9YTy3hw-46" value="" style="html=1;points=[[0,0,0,0,5],[0,1,0,0,-5],[1,0,0,0,5],[1,1,0,0,-5]];perimeter=orthogonalPerimeter;outlineConnect=0;targetShapes=umlLifeline;portConstraint=eastwest;newEdgeStyle={&quot;curved&quot;:0,&quot;rounded&quot;:0};" parent="1" vertex="1">
          <mxGeometry x="195" y="1040" width="10" height="230" as="geometry" />
        </mxCell>
        <mxCell id="HE8XgLgueNXkd9YTy3hw-56" style="edgeStyle=orthogonalEdgeStyle;rounded=0;orthogonalLoop=1;jettySize=auto;html=1;curved=0;endArrow=none;endFill=0;startArrow=classicThin;startFill=1;dashed=1;" parent="1" edge="1">
          <mxGeometry relative="1" as="geometry">
            <Array as="points">
              <mxPoint x="300" y="1239.64" />
              <mxPoint x="300" y="1239.64" />
            </Array>
            <mxPoint x="205" y="1239.64" as="sourcePoint" />
            <mxPoint x="445" y="1239.64" as="targetPoint" />
          </mxGeometry>
        </mxCell>
        <mxCell id="HE8XgLgueNXkd9YTy3hw-57" value="confirmationsEnvoyées()" style="edgeLabel;html=1;align=center;verticalAlign=middle;resizable=0;points=[];" parent="HE8XgLgueNXkd9YTy3hw-56" vertex="1" connectable="0">
          <mxGeometry x="-0.2583" y="2" relative="1" as="geometry">
            <mxPoint x="26" y="-8" as="offset" />
          </mxGeometry>
        </mxCell>
        <mxCell id="HE8XgLgueNXkd9YTy3hw-58" style="edgeStyle=orthogonalEdgeStyle;rounded=0;orthogonalLoop=1;jettySize=auto;html=1;curved=0;entryX=1.376;entryY=0.595;entryDx=0;entryDy=0;entryPerimeter=0;dashed=1;" parent="1" edge="1">
          <mxGeometry relative="1" as="geometry">
            <mxPoint x="455" y="180.04761904761904" as="sourcePoint" />
            <mxPoint x="458.7600000000002" y="219.9000000000001" as="targetPoint" />
            <Array as="points">
              <mxPoint x="520" y="180" />
            </Array>
          </mxGeometry>
        </mxCell>
        <mxCell id="HE8XgLgueNXkd9YTy3hw-59" value="récupérerParticipants()" style="edgeLabel;html=1;align=center;verticalAlign=middle;resizable=0;points=[];" parent="HE8XgLgueNXkd9YTy3hw-58" vertex="1" connectable="0">
          <mxGeometry x="0.1591" y="-1" relative="1" as="geometry">
            <mxPoint x="41" y="-11" as="offset" />
          </mxGeometry>
        </mxCell>
        <mxCell id="ya-qEndImmD951xZ4SbS-1" style="edgeStyle=orthogonalEdgeStyle;rounded=0;orthogonalLoop=1;jettySize=auto;html=1;curved=0;entryX=1.376;entryY=0.595;entryDx=0;entryDy=0;entryPerimeter=0;dashed=1;" parent="1" edge="1">
          <mxGeometry relative="1" as="geometry">
            <mxPoint x="705" y="1144.047619047619" as="sourcePoint" />
            <mxPoint x="708.7600000000002" y="1183.9" as="targetPoint" />
            <Array as="points">
              <mxPoint x="770" y="1144" />
            </Array>
          </mxGeometry>
        </mxCell>
        <mxCell id="ya-qEndImmD951xZ4SbS-2" value="envoyerConfirmations(confirmation)" style="edgeLabel;html=1;align=center;verticalAlign=middle;resizable=0;points=[];" parent="ya-qEndImmD951xZ4SbS-1" vertex="1" connectable="0">
          <mxGeometry x="0.1591" y="-1" relative="1" as="geometry">
            <mxPoint x="41" y="-11" as="offset" />
          </mxGeometry>
        </mxCell>
        <mxCell id="ya-qEndImmD951xZ4SbS-3" style="edgeStyle=orthogonalEdgeStyle;rounded=0;orthogonalLoop=1;jettySize=auto;html=1;curved=0;endArrow=none;endFill=0;startArrow=classicThin;startFill=1;dashed=1;" parent="1" edge="1">
          <mxGeometry relative="1" as="geometry">
            <Array as="points">
              <mxPoint x="550" y="1220" />
              <mxPoint x="550" y="1220" />
            </Array>
            <mxPoint x="455" y="1220" as="sourcePoint" />
            <mxPoint x="695" y="1220" as="targetPoint" />
          </mxGeometry>
        </mxCell>
        <mxCell id="ya-qEndImmD951xZ4SbS-4" value="confirmationsEnvoyées()" style="edgeLabel;html=1;align=center;verticalAlign=middle;resizable=0;points=[];" parent="ya-qEndImmD951xZ4SbS-3" vertex="1" connectable="0">
          <mxGeometry x="-0.2583" y="2" relative="1" as="geometry">
            <mxPoint x="26" y="-8" as="offset" />
          </mxGeometry>
        </mxCell>
        <mxCell id="UPAjzhmpNrmg0B0s32Ip-10" value="&lt;b&gt;LOOP&lt;/b&gt;" style="shape=umlFrame;whiteSpace=wrap;html=1;pointerEvents=0;" vertex="1" parent="1">
          <mxGeometry x="-30" y="300" width="1010" height="690" as="geometry" />
        </mxCell>
        <mxCell id="UPAjzhmpNrmg0B0s32Ip-20" value="&lt;b&gt;WHILE invitations &amp;lt; participants&lt;/b&gt;" style="text;html=1;align=center;verticalAlign=middle;resizable=0;points=[];autosize=1;strokeColor=none;fillColor=none;" vertex="1" parent="1">
          <mxGeometry x="-25" y="340" width="210" height="30" as="geometry" />
        </mxCell>
      </root>
    </mxGraphModel>
  </diagram>
</mxfile>
